<?xml version="1.0" encoding="UTF-8" standalone="no"?>
<svg xmlns="http://www.w3.org/2000/svg" viewBox="0 0 8000 8000">
  <path fill="#f9961f" d="m5823 785-64 231c-4 15-11 57-21 68 47 20 90 48 132 75l202 132a3307 3307 0 0 1 870 909c94 145 175 297 252 451 27-2 62-20 88-29l197-69c-58-161-146-308-238-452A3729 3729 0 0 0 5823 785Zm-572 60-191 236-267 339-867 1101-1169 1440-355 439-111 134c-23 27-49 55-67 85l1327 7-1201 2784 3330-4070H4406l266-630 73-175c16-36 37-75 46-113l-2-1c-16 11-56 122-68 147l-3-11-2-6c-11-43-9-89-10-133-5-211 47-398 116-595 89-257 206-499 321-745l61-119c18-33 45-75 47-114zM3805 1881c-27 0-1269 618-1413 698l-22 12 281 40c20 3 64 3 79 13l-727 567c-127 96-257 203-399 278 49 4 111-43 159-61 3-2 19-8 22-8 41-29 90-49 135-71l236-114 926-463c122-64 252-122 368-196l-402 20 772-710c-4-2-9-5-15-5zm3680 976c-57 12-103 35-135 86-24 36-34 85-23 128a173 173 0 0 0 80 107c38 23 71 27 114 26 54-13 106-34 137-85a175 175 0 0 0 19-139c-11-40-36-80-73-101-38-22-77-23-119-22zM350 3590c-48 9-93 30-120 74-26 42-38 98-24 148 11 43 37 85 77 108l12 6 7 4c30 14 69 15 102 11 54-15 95-38 123-88 22-42 30-93 16-139a175 175 0 0 0-89-105c-32-18-68-21-104-19zm147 665-290 1c17 282 57 557 133 830a3752 3752 0 0 0 1102 1769c178 157 368 290 570 413 38 23 83 57 124 70l34-78 89-200a3887 3887 0 0 1-728-542A3463 3463 0 0 1 509 4349c-2-26 0-73-12-94z"/>
  <path fill="#7a34ae" d="M4004 945A3170 3170 0 0 0 947 3230a3060 3060 0 0 0 44 1829c54 166 118 326 203 479 282 517 697 938 1205 1234l159-349a2841 2841 0 0 1-1057-1109c-35-69-77-146-99-221l-258-4 109-138c20-27 46-53 63-82l4-6c-57-207-100-424-113-639a2714 2714 0 0 1 356-1501c268-471 673-867 1161-1107 180-87 368-152 560-205a2711 2711 0 0 1 950-81l169 18c50 7 111 22 161 20h5c5-3 13-19 16-23l49-66 134-165c15-18 39-41 48-61l2-6a3359 3359 0 0 0-815-102Zm1883 604-76 171-44 92c-11 21-29 46-31 69a2926 2926 0 0 1 627 691c52 80 102 161 144 247l-158 2a3278 3278 0 0 0-386-541c-91-97-189-185-288-273l-3-1-206 448-106 233c-19 43-42 87-53 132l1041 4 84 183c17 38 34 84 56 118h154c43 129 83 258 110 392 120 607 24 1258-255 1808a2778 2778 0 0 1-778 917c-90 70-181 139-281 196a2890 2890 0 0 1-548 232 2860 2860 0 0 1-1304 106c-16 54-68 104-101 148-48 68-99 135-138 208-3 5-2 3-5 5l177 27a3461 3461 0 0 0 1016-5c535-81 1013-306 1436-640 234-183 443-393 619-633a3125 3125 0 0 0 550-2284 3130 3130 0 0 0-1253-2052ZM480 2917l-32 2c-54 11-95 30-127 78a184 184 0 0 0 46 250c38 23 92 40 136 31 53-11 94-31 124-79a184 184 0 0 0-57-258c-29-18-59-24-90-24z"/>
  <path fill="#fa4244" d="m5876 67-625 778c-2 39-29 81-47 114l-61 119c-115 246-232 488-321 745-69 197-121 384-116 595 1 44-1 90 10 133l2 6 3 11c12-25 52-136 68-147l2 1c20-32 33-71 49-105l95-217 305-692 469-991c55-116 118-232 167-350ZM3195 361l-10 1c-58 10-110 28-146 78a187 187 0 0 0-29 144 187 187 0 0 0 85 123c38 23 77 25 121 24 58-12 108-36 142-88a170 170 0 0 0 23-64l2-7a166 166 0 0 0-27-122 196 196 0 0 0-131-86Zm1077 1116c-47 54-107 100-160 147l-292 262-772 710 402-20c-116 74-246 132-368 196l-926 463-236 114c-45 22-94 42-135 71h6c10 0 20 0 29-3 36-11 71-28 105-40l282-99 376-124 220-72-1012 1225-196 235c-50 62-99 133-162 184l-113 137-4 6c-17 29-43 55-63 82l-109 138 258 4c38 0 76-2 114 0 10 0 26-1 36 4 54 134 124 259 204 378 145 219 320 416 522 584 104 82 212 167 329 231 13-12 26-54 33-71l101-233 377-873-505 4 96-265-960 3 2703-3356zm1082 157c-23 37-38 77-54 117l-453 1064 460 4c11-45 34-89 53-132l106-233 206-447h3c12-44 36-86 56-126l-197-134Zm-723 2357h-296l-780 6c-140 2-283 9-423 2l-189 238 1133-1-930 1745 1548-1988c-21-3-41-3-63-3zm192 3398h-18c-54 10-102 31-133 79-29 42-40 101-28 152a193 193 0 0 0 87 115c36 21 74 28 117 26 52-9 100-35 131-78a181 181 0 0 0-46-263c-33-22-71-31-110-31z"/>
  <path fill="#a60857" d="m2709 4852 518 8-109 253-505 4z"/>
  <path fill="#3f117a" d="m5650 1390-116 357 197 134h5c2-23 20-48 31-69l44-92 76-171zm-803 1425-130 313 1400 4-2852 3432 259 70c136 17 268 38 405 44 361 15 751-59 1085-193a2621 2621 0 0 0 1422-1374 2666 2666 0 0 0 52-1987c-22-34-39-80-56-118l-84-183-1041-4zM3169 6686 2145 7929l4 4 854-887 339 90c3-2 2 0 5-5 39-73 90-140 138-208 33-44 85-94 101-148z"/>
  <path fill="#03067d" d="m5892 475-538 1159 180 113 197 134h5c2-23 20-48 31-69l44-92 76-171-237-159 88-306c10-11 17-53 21-68l64-231 72-305zm-538 1159zm763 1498L3265 6564l259 70 1229-1470 320 5 94-133-282 6-2 6c-26 52-80 87-129 116l61-73c11-14 20-24 19-41l-23-7c-7-2-4 0-11-6 22-21 54-36 81-52l134-93a256 256 0 0 1 38-75c56-78 120-149 181-222l277-334 435-535 489-589c-40-4-85-1-125 0zm-190 1330c-15 1-42 33-55 43l-95 85c-32 32-62 68-98 96-24 19-31 18-59 15l-190 210 136 1c27-40 60-76 91-114l191-235 53-65c9-12 21-22 26-36zm-347 554-694 534h1c-13 62-61 99-102 142-31 29-60 62-93 89-28 24-60 46-83 75l1188-832c-68-1-145 6-212-7z"/>
  <path fill="#f7c0ce" d="m5354 1634 180 113 197 134c-20 40-44 82-56 126h-3c-109-99-247-176-372-256 16-40 31-80 54-117z"/>
  <path fill="#f4732d" d="m2670 569-13 1A3861 3861 0 0 0 569 2470l-54 127 186 63 91 32c85-183 180-357 293-525 330-485 783-882 1302-1155l257-121 151-59-75-153c-16-37-29-76-50-110zm1340 894a2666 2666 0 0 0-1738 626 2595 2595 0 0 0-875 2473c9 55 18 112 36 164 63-51 112-122 162-184l196-235 1012-1225-220 72-376 124-282 99c-34 12-69 29-105 40-9 3-19 3-29 3h-6c41-29 90-49 135-71l236-114 926-463c122-64 252-122 368-196l-402 20 772-710 292-262c53-47 113-93 160-147-87-7-174-13-262-14zm1662 543-206 448-106 233c-19 43-42 87-53 132l1041 4 1-2a3278 3278 0 0 0-386-541c-91-97-189-185-288-273h-3zm-1172 222c-47 47-87 111-128 164l-295 382-945 1225c140 7 283 0 423-2l780-6h233c41 0 85-2 126 2l214-281-989-16zm3252 1249h-9l-277 62a3497 3497 0 0 1-631 2580 3372 3372 0 0 1-1255 1040c-118 58-242 100-360 155 56 60 88 120 98 204l1 76c157-64 316-124 468-202a3751 3751 0 0 0 1719-1860 3906 3906 0 0 0 256-2052c-5-3-7-3-10-3zM1552 5096v1c54 134 124 259 204 378 145 219 320 416 522 584l333-942-606-9-292-4c-49-1-109 7-157-6z"/>
  <path fill="#f4d150" d="m5015 4892 189-115 148-102 384-241c75-45 151-101 229-139l-345 406-190 210 136 1 156 4c-43 38-96 65-142 100l-694 534-213 163 400-544 94-133-282 6-74 1c-7-2-4 0-11-6 22-21 54-36 81-52z"/>
</svg>
